<svg viewBox="0 0 512.0005 512" xmlns="http://www.w3.org/2000/svg"><path d="m10 485.019531c22.644531 22.644531 59.355469 22.644531 82 0 22.644531 22.644531 59.355469 22.644531 82 0 22.644531 22.644531 59.355469 22.644531 82 0 22.644531 22.644531 59.355469 22.644531 82 0 22.644531 22.644531 59.355469 22.644531 82 0 22.644531 22.644531 59.355469 22.644531 82 0v-116.683593c-22.644531 22.640624-59.355469 22.640624-82 0-22.644531 22.640624-59.355469 22.640624-82 0-22.644531 22.640624-59.355469 22.640624-82 0-22.644531 22.640624-59.355469 22.640624-82 0-22.644531 22.640624-59.355469 22.640624-82 0-22.644531 22.640624-59.355469 22.640624-82 0zm0 0" fill="#ade5ff"/><path d="m280.160156 276.128906 173.839844-.128906c0-22.082031-17.914062-39.980469-40-39.957031l-141.460938.085937c-12.238281 0-24.289062 2.992188-35.105468 8.71875-47.523438 25.152344-89.914063 58.980469-124.988282 99.730469l-20.449218 23.757813c23.722656 17.210937 55.671875 17.757812 79.972656 1.371093l2.03125-1.371093c28.527344 17.488281 63.914062 19.554687 94.28125 5.496093l11.878906-5.496093zm0 0" fill="#ffd0bb"/><path d="m328.644531 322.230469c0 25.460937-20.644531 46.105469-46.105469 46.105469-25.460937 0-46.101562-20.644532-46.101562-46.105469 0-25.460938 20.640625-46.101563 46.101562-46.101563 25.460938 0 46.105469 20.640625 46.105469 46.101563zm0 0" fill="#ffd0bb"/><path d="m131.5 95.5c0 19.882812-16.117188 36-36 36s-36-16.117188-36-36 16.117188-36 36-36 36 16.117188 36 36zm0 0" fill="#ffc66c"/><path d="m342 246.089844c5.523438 0 10-4.476563 10-10v-.003906c0-5.523438-4.476562-10-10-10-5.519531 0-10 4.480468-10 10.003906 0 5.523437 4.480469 10 10 10zm0 0"/><path d="m338 381.566406c24.160156 18.292969 57.84375 18.292969 82 0 12.078125 9.148438 26.539062 13.71875 41 13.71875 17.410156 0 34.816406-6.625 48.070312-19.878906 3.90625-3.90625 3.90625-10.238281 0-14.144531-3.90625-3.902344-10.234374-3.902344-14.140624 0-9.0625 9.0625-21.113282 14.054687-33.929688 14.054687s-24.867188-4.992187-33.929688-14.054687c-3.90625-3.902344-10.234374-3.902344-14.140624 0-9.066407 9.0625-21.113282 14.054687-33.929688 14.054687s-24.867188-4.992187-33.929688-14.054687c-3.90625-3.902344-10.238281-3.902344-14.144531 0-8.261719 8.261719-18.8125 12.871093-29.628906 13.835937 21.738281-7.738281 37.34375-28.511718 37.34375-52.867187 0-13.757813-4.984375-26.367188-13.234375-36.136719l128.597656-.09375c5.523438-.003906 9.992188-4.480469 9.992188-10 0-13.351562-5.203125-25.90625-14.648438-35.34375-9.4375-9.425781-21.972656-14.613281-35.304687-14.613281-.015625 0-.035157 0-.054688 0l-33 .023437c-5.519531.003906-9.996093 4.484375-9.992187 10.007813.003906 5.519531 4.480468 9.992187 10 9.992187h.007812l33.003906-.023437h.03125c7.996094 0 15.515626 3.109375 21.171876 8.761719 3.222656 3.21875 5.617187 7.039062 7.089843 11.207031l-162.148437.117187c-.621094 0-1.222656.0625-1.8125.171875-28.980469 2.15625-51.90625 26.410157-51.90625 55.929688 0 16.765625 7.402344 31.824219 19.09375 42.113281-18.828125 15.558594-46.84375 14.535156-64.457032-3.078125-3.90625-3.90625-10.238281-3.90625-14.144531 0-9.0625 9.0625-21.109375 14.050781-33.929687 14.050781-9.6875 0-18.9375-2.855468-26.792969-8.164062l13.816406-16.050782c34.402344-39.96875 75.476563-72.746093 122.085938-97.414062 9.339843-4.945312 19.863281-7.558594 30.4375-7.558594l28.460937-.019531c5.523438-.003906 9.996094-4.484375 9.992188-10.007813-.003906-5.519531-4.480469-9.992187-10-9.992187 0 0-.003906 0-.007813 0l-28.453125.019531c-13.816406 0-27.574218 3.417969-39.785156 9.878906-48.824219 25.84375-91.851562 60.175782-127.890625 102.046876l-20.164063 23.429687c-9.035156 8.917969-20.984374 13.832031-33.695312 13.832031-12.816406 0-24.867188-4.992187-33.929688-14.054687-3.90625-3.902344-10.234374-3.902344-14.140624 0-3.90625 3.90625-3.90625 10.238281 0 14.144531 24.265624 24.261719 62.449218 26.316406 89.070312 6.160156 24.160156 18.292969 57.84375 18.292969 82 0 24.160156 18.292969 57.84375 18.292969 82 0 24.160156 18.292969 57.84375 18.292969 82 0zm-55.460938-95.4375c19.90625 0 36.105469 16.195313 36.105469 36.101563 0 19.910156-16.195312 36.105469-36.105469 36.105469-19.90625 0-36.101562-16.195313-36.101562-36.105469 0-19.90625 16.195312-36.101563 36.101562-36.101563zm0 0"/><path d="m494.929688 423.945312c-18.707032 18.710938-49.148438 18.710938-67.855469 0-3.90625-3.902343-10.238281-3.902343-14.144531 0-18.707032 18.710938-49.148438 18.710938-67.855469 0-3.90625-3.902343-10.238281-3.902343-14.144531 0-18.707032 18.710938-49.148438 18.710938-67.855469 0-3.90625-3.902343-10.238281-3.902343-14.144531 0-3.90625 3.90625-3.90625 10.238282 0 14.144532 24.261718 24.261718 62.445312 26.320312 89.066406 6.167968 11.742187 8.917969 26.003906 13.742188 41.003906 13.742188s29.261719-4.824219 41.007812-13.742188c26.621094 20.152344 64.804688 18.09375 89.0625-6.167968 3.90625-3.90625 3.90625-10.238282 0-14.144532-3.90625-3.902343-10.234374-3.902343-14.140624 0zm0 0"/><path d="m166.929688 477.945312c-18.707032 18.710938-49.148438 18.710938-67.855469 0-3.90625-3.902343-10.238281-3.902343-14.144531 0-18.707032 18.710938-49.148438 18.710938-67.855469 0-3.90625-3.902343-10.238281-3.902343-14.144531 0-3.90625 3.90625-3.90625 10.238282 0 14.144532 24.265624 24.261718 62.449218 26.320312 89.070312 6.164062 12.078125 9.144532 26.539062 13.714844 41 13.714844 17.410156 0 34.816406-6.625 48.070312-19.878906 3.90625-3.90625 3.90625-10.238282 0-14.144532-3.90625-3.902343-10.234374-3.902343-14.140624 0zm0 0"/><path d="m95.5 141.5c25.363281 0 46-20.632812 46-46 0-25.363281-20.636719-46-46-46s-46 20.636719-46 46c0 25.367188 20.636719 46 46 46zm0-72c14.335938 0 26 11.664062 26 26s-11.664062 26-26 26-26-11.664062-26-26 11.664062-26 26-26zm0 0"/><path d="m95.5 26.132812c5.523438 0 10-4.480468 10-10v-6.132812c0-5.523438-4.476562-10-10-10-5.519531 0-10 4.476562-10 10v6.132812c0 5.519532 4.480469 10 10 10zm0 0"/><path d="m85.5 174.871094v6.128906c0 5.523438 4.480469 10 10 10 5.523438 0 10-4.476562 10-10v-6.128906c0-5.523438-4.476562-10-10-10-5.519531 0-10 4.476562-10 10zm0 0"/><path d="m174.871094 105.5h6.128906c5.523438 0 10-4.476562 10-10s-4.476562-10-10-10h-6.128906c-5.523438 0-10 4.476562-10 10s4.476562 10 10 10zm0 0"/><path d="m10 105.5h6.132812c5.519532 0 10-4.476562 10-10s-4.480468-10-10-10h-6.132812c-5.519531 0-10 4.476562-10 10s4.480469 10 10 10zm0 0"/><path d="m32.308594 144.550781-4.335938 4.335938c-3.90625 3.90625-3.90625 10.234375 0 14.140625 1.949219 1.953125 4.511719 2.929687 7.070313 2.929687 2.558593 0 5.117187-.976562 7.070312-2.925781l4.335938-4.335938c3.90625-3.90625 3.90625-10.234374 0-14.140624-3.902344-3.90625-10.234375-3.90625-14.140625-.003907zm0 0"/><path d="m151.621094 49.378906c2.5625 0 5.121094-.976562 7.070312-2.929687l4.335938-4.332031c3.90625-3.90625 3.90625-10.238282.003906-14.144532-3.90625-3.90625-10.238281-3.90625-14.144531 0l-4.335938 4.335938c-3.902343 3.902344-3.90625 10.234375 0 14.140625 1.953125 1.953125 4.511719 2.929687 7.070313 2.929687zm0 0"/><path d="m32.308594 46.449219c1.953125 1.953125 4.511718 2.929687 7.070312 2.929687s5.117188-.976562 7.070313-2.929687c3.90625-3.90625 3.90625-10.238281 0-14.144531l-4.335938-4.332032c-3.90625-3.90625-10.238281-3.90625-14.144531 0-3.902344 3.90625-3.902344 10.238282.003906 14.140625zm0 0"/><path d="m148.890625 163.03125c1.949219 1.949219 4.511719 2.925781 7.066406 2.925781 2.5625 0 5.121094-.976562 7.074219-2.929687 3.902344-3.90625 3.902344-10.234375-.003906-14.140625l-4.335938-4.335938c-3.90625-3.90625-10.234375-3.902343-14.140625 0-3.90625 3.90625-3.902343 10.238281 0 14.144531zm0 0"/></svg>